<svg width="20" height="20" viewBox="0 0 20 20" fill="none" xmlns="http://www.w3.org/2000/svg">
<rect width="20" height="20" rx="4" fill="#0655FF"/>
<path d="M14.0335 7.12874C14.0984 6.90788 14.1334 6.66465 14.1334 6.39771C14.1334 4.52121 12.6128 3 10.7369 3C8.97957 3 7.53393 4.33512 7.35833 6.04671C6.3938 6.40732 4.85783 7.45902 4.30953 9.64135C3.6968 12.0801 4.54416 15.3877 5.46388 16.9847C5.4803 17.0132 5.52256 16.9989 5.52141 16.966C5.40567 13.6569 5.70427 11.638 11.6145 9.07936C11.7426 10.023 12.1588 11.677 13.3967 12.4425C14.6762 13.2337 14.9024 14.5464 14.879 15.3187C14.8778 15.3572 14.9413 15.3715 14.9527 15.3346C15.3667 13.9964 16.781 8.74334 14.0335 7.12874Z" fill="white"/>
<path fill-rule="evenodd" clip-rule="evenodd" d="M12.4654 15.9597C13.6069 15.9597 14.5324 15.0339 14.5324 13.8919C14.5324 12.7499 13.6069 11.8241 12.4654 11.8241C11.7252 11.8241 11.076 12.2133 10.7108 12.7982C10.6711 12.7867 10.6194 12.7725 10.5614 12.7583C10.4364 12.7276 10.2588 12.6907 10.1081 12.6907C9.95692 12.6907 9.78405 12.7273 9.6629 12.7578C9.60226 12.7731 9.54902 12.7883 9.50983 12.8001C9.14491 12.2142 8.49508 11.8243 7.75421 11.8243C6.61262 11.8243 5.68719 12.7501 5.68719 13.8921C5.68719 15.0341 6.61262 15.9598 7.75421 15.9598C8.8958 15.9598 9.82123 15.0341 9.82123 13.8921C9.82123 13.6806 9.78949 13.4765 9.7305 13.2843C9.74907 13.2792 9.76903 13.2739 9.78998 13.2686C9.90384 13.2399 10.0246 13.2173 10.1081 13.2173C10.1919 13.2173 10.3176 13.2405 10.4374 13.2699C10.4555 13.2743 10.4729 13.2788 10.4894 13.2831C10.4302 13.4756 10.3983 13.68 10.3983 13.8919C10.3983 15.0339 11.3238 15.9597 12.4654 15.9597ZM12.4654 15.3218C13.2544 15.3218 13.8945 14.6818 13.8945 13.8919C13.8945 13.102 13.2544 12.462 12.4654 12.462C11.6763 12.462 11.0362 13.102 11.0362 13.8919C11.0362 14.6818 11.6763 15.3218 12.4654 15.3218ZM7.75421 15.322C8.54331 15.322 9.18339 14.682 9.18339 13.8921C9.18339 13.1021 8.54331 12.4622 7.75421 12.4622C6.96511 12.4622 6.32503 13.1021 6.32503 13.8921C6.32503 14.682 6.96511 15.322 7.75421 15.322Z" fill="white"/>
</svg>
